<svg id="Layer_1" data-name="Layer 1" xmlns="http://www.w3.org/2000/svg" viewBox="0 0 410.2 243.8"><defs><style>.cls-1{fill:#f5e473;stroke:#000;stroke-miterlimit:10;}</style></defs><path class="cls-1" d="M63.7,17,180.3,135c39.3-39.8,78-79,116.8-118.1l1.1.8V212H398.5c14.1,0,24.6-10,24.7-23.3s-10.5-23.8-24.8-23.8H353.9c2-8.9,2.7-9.5,10.7-9.5,11.5,0,23-.2,34.5.1,14.6.3,25.2,7.2,30.8,20.7s2.5,25.2-7,35.6a28,28,0,0,1-20.9,9.4c-36.8.2-73.7.1-110.5.1a11.6,11.6,0,0,1-2.2-.5V38.7L181.2,148.1,73.1,38.8l-1.8,1.1V209.1c-7.1-2.6-9.6-5.9-9.6-12.3V22.8c0-1.6.1-3.2.2-4.8Z" transform="translate(-61.2 -16.2)"/><path class="cls-1" d="M438.7,140.4a42.7,42.7,0,0,0,4.8-3.6C461,118.9,466.3,93,456.3,70.2s-29.7-37.1-56.2-38.1c-13.8-.5-27.6-.1-41.5-.1,1.5-7.2,3.7-9.2,10.5-9.1,13.7.2,27.5-.8,41,1,53.3,7.2,78.7,71,45.5,113.2l-2.9,3.8,2.2,3.2c17.9,23.1,20.7,48.4,8.6,74.3s-34,40.5-63.2,40.8c-47.6.6-95.3.1-143,.3-4.6,0-5.5-1.6-5.5-5.8.2-37,.4-74-.1-111-.2-8.5,4-13.8,9.3-20.4V249.7l5.6.3H399.1a61.5,61.5,0,0,0,57.5-38.5c9.6-23.4,4.2-49-14.1-67.2C441.5,143.4,440.6,142.4,438.7,140.4Z" transform="translate(-61.2 -16.2)"/><path class="cls-1" d="M178.7,189.7c5.9-5.6,9.6-10.2,14.3-13,2.4-1.5,6.7.1,10.4.4l-24.2,24L111,130.5l-2.2,1.2V238.9c-8.1-3.3-9.6-5.4-9.6-12.6V108.7Z" transform="translate(-61.2 -16.2)"/><path class="cls-1" d="M332.3,70.1V60.9h66.2c19.5,0,34.1,14.2,34,32.9s-14.8,33.1-34.1,33.2H369.5c-.6-8.4.1-9.2,7.5-9.2h21.5c13.8-.1,24.5-10.4,24.7-23.6s-9.8-23.8-24-24c-20.2-.3-40.3-.1-60.5-.1Z" transform="translate(-61.2 -16.2)"/></svg>